solid s-1_rod_cap
facet normal -0.7933533402912332 0.6087614290087232 0.0
  outer loop
    vertex 4.34174480316421 2.5124998478975877 3.0
    vertex 4.222555836215792 2.3571697620076777 0.9999999999999999
    vertex 4.222555836215792 2.3571697620076777 3.0
  endloop
endfacet
facet normal -0.7933533402912332 0.6087614290087232 0.0
  outer loop
    vertex 4.222555836215792 2.3571697620076777 0.9999999999999999
    vertex 4.34174480316421 2.5124998478975877 3.0
    vertex 4.34174480316421 2.5124998478975877 0.9999999999999999
  endloop
endfacet
facet normal -0.9238795325112871 0.38268343236508895 0.0
  outer loop
    vertex 4.416670120042682 2.693385564070697 3.0
    vertex 4.34174480316421 2.5124998478975877 0.9999999999999999
    vertex 4.34174480316421 2.5124998478975877 3.0
  endloop
endfacet
facet normal -0.9238795325112871 0.38268343236508895 0.0
  outer loop
    vertex 4.34174480316421 2.5124998478975877 0.9999999999999999
    vertex 4.416670120042682 2.693385564070697 3.0
    vertex 4.416670120042682 2.693385564070697 0.9999999999999999
  endloop
endfacet
facet normal -0.9914448613738105 0.13052619222005074 0.0
  outer loop
    vertex 4.442225750325881 2.887499847897589 3.0
    vertex 4.416670120042682 2.693385564070697 0.9999999999999999
    vertex 4.416670120042682 2.693385564070697 3.0
  endloop
endfacet
facet normal -0.9914448613738105 0.13052619222005074 0.0
  outer loop
    vertex 4.416670120042682 2.693385564070697 0.9999999999999999
    vertex 4.442225750325881 2.887499847897589 3.0
    vertex 4.442225750325881 2.887499847897589 0.9999999999999999
  endloop
endfacet
facet normal -0.9914448613738105 -0.1305261922200512 0.0
  outer loop
    vertex 4.416670120042682 3.0816141317244803 3.0
    vertex 4.442225750325881 2.887499847897589 0.9999999999999999
    vertex 4.442225750325881 2.887499847897589 3.0
  endloop
endfacet
facet normal -0.9914448613738105 -0.1305261922200512 0.0
  outer loop
    vertex 4.442225750325881 2.887499847897589 0.9999999999999999
    vertex 4.416670120042682 3.0816141317244803 3.0
    vertex 4.416670120042682 3.0816141317244803 0.9999999999999999
  endloop
endfacet
facet normal -0.9238795325112892 -0.3826834323650838 0.0
  outer loop
    vertex 4.34174480316421 3.262499847897592 3.0
    vertex 4.416670120042682 3.0816141317244803 0.9999999999999999
    vertex 4.416670120042682 3.0816141317244803 3.0
  endloop
endfacet
facet normal -0.9238795325112892 -0.3826834323650838 0.0
  outer loop
    vertex 4.416670120042682 3.0816141317244803 0.9999999999999999
    vertex 4.34174480316421 3.262499847897592 3.0
    vertex 4.34174480316421 3.262499847897592 0.9999999999999999
  endloop
endfacet
facet normal -0.7933533402912325 -0.6087614290087242 0.0
  outer loop
    vertex 4.222555836215792 3.417829933787502 3.0
    vertex 4.34174480316421 3.262499847897592 0.9999999999999999
    vertex 4.34174480316421 3.262499847897592 3.0
  endloop
endfacet
facet normal -0.7933533402912325 -0.6087614290087242 0.0
  outer loop
    vertex 4.34174480316421 3.262499847897592 0.9999999999999999
    vertex 4.222555836215792 3.417829933787502 3.0
    vertex 4.222555836215792 3.417829933787502 0.9999999999999999
  endloop
endfacet
facet normal -0.6087614290087225 -0.7933533402912339 0.0
  outer loop
    vertex 4.222555836215792 3.417829933787502 3.0
    vertex 4.067225750325881 3.5370189007359207 0.9999999999999999
    vertex 4.222555836215792 3.417829933787502 0.9999999999999999
  endloop
endfacet
facet normal -0.6087614290087225 -0.7933533402912339 0.0
  outer loop
    vertex 4.067225750325881 3.5370189007359207 0.9999999999999999
    vertex 4.222555836215792 3.417829933787502 3.0
    vertex 4.067225750325881 3.5370189007359207 3.0
  endloop
endfacet
facet normal -0.3826834323650821 -0.92387953251129 0.0
  outer loop
    vertex 4.067225750325881 3.5370189007359207 3.0
    vertex 3.886340034152772 3.611944217614391 0.9999999999999999
    vertex 4.067225750325881 3.5370189007359207 0.9999999999999999
  endloop
endfacet
facet normal -0.3826834323650821 -0.92387953251129 0.0
  outer loop
    vertex 3.886340034152772 3.611944217614391 0.9999999999999999
    vertex 4.067225750325881 3.5370189007359207 3.0
    vertex 3.886340034152772 3.611944217614391 3.0
  endloop
endfacet
facet normal -0.13052619222005876 -0.9914448613738096 0.0
  outer loop
    vertex 3.886340034152772 3.611944217614391 3.0
    vertex 3.692225750325881 3.6374998478975917 0.9999999999999999
    vertex 3.886340034152772 3.611944217614391 0.9999999999999999
  endloop
endfacet
facet normal -0.13052619222005876 -0.9914448613738096 0.0
  outer loop
    vertex 3.692225750325881 3.6374998478975917 0.9999999999999999
    vertex 3.886340034152772 3.611944217614391 3.0
    vertex 3.692225750325881 3.6374998478975917 3.0
  endloop
endfacet
facet normal 0.13052619222005876 -0.9914448613738096 0.0
  outer loop
    vertex 3.692225750325881 3.6374998478975917 3.0
    vertex 3.4981114664989903 3.611944217614391 0.9999999999999999
    vertex 3.692225750325881 3.6374998478975917 0.9999999999999999
  endloop
endfacet
facet normal 0.13052619222005876 -0.9914448613738096 0.0
  outer loop
    vertex 3.4981114664989903 3.611944217614391 0.9999999999999999
    vertex 3.692225750325881 3.6374998478975917 3.0
    vertex 3.4981114664989903 3.611944217614391 3.0
  endloop
endfacet
facet normal 0.3826834323650821 -0.92387953251129 0.0
  outer loop
    vertex 3.4981114664989903 3.611944217614391 3.0
    vertex 3.317225750325881 3.5370189007359207 0.9999999999999999
    vertex 3.4981114664989903 3.611944217614391 0.9999999999999999
  endloop
endfacet
facet normal 0.3826834323650821 -0.92387953251129 0.0
  outer loop
    vertex 3.317225750325881 3.5370189007359207 0.9999999999999999
    vertex 3.4981114664989903 3.611944217614391 3.0
    vertex 3.317225750325881 3.5370189007359207 3.0
  endloop
endfacet
facet normal 0.6087614290087224 -0.7933533402912338 0.0
  outer loop
    vertex 3.317225750325881 3.5370189007359207 3.0
    vertex 3.1618956644359706 3.417829933787502 0.9999999999999999
    vertex 3.317225750325881 3.5370189007359207 0.9999999999999999
  endloop
endfacet
facet normal 0.6087614290087224 -0.7933533402912338 0.0
  outer loop
    vertex 3.1618956644359706 3.417829933787502 0.9999999999999999
    vertex 3.317225750325881 3.5370189007359207 3.0
    vertex 3.1618956644359706 3.417829933787502 3.0
  endloop
endfacet
facet normal 0.7933533402912335 -0.6087614290087231 -0.0
  outer loop
    vertex 3.1618956644359706 3.417829933787502 0.9999999999999999
    vertex 3.042706697487552 3.262499847897592 3.0
    vertex 3.042706697487552 3.262499847897592 0.9999999999999999
  endloop
endfacet
facet normal 0.7933533402912335 -0.6087614290087231 -0.0
  outer loop
    vertex 3.042706697487552 3.262499847897592 3.0
    vertex 3.1618956644359706 3.417829933787502 0.9999999999999999
    vertex 3.1618956644359706 3.417829933787502 3.0
  endloop
endfacet
facet normal 0.9238795325112886 -0.38268343236508534 -0.0
  outer loop
    vertex 3.042706697487552 3.262499847897592 0.9999999999999999
    vertex 2.96778138060908 3.0816141317244803 3.0
    vertex 2.96778138060908 3.0816141317244803 0.9999999999999999
  endloop
endfacet
facet normal 0.9238795325112886 -0.38268343236508534 -0.0
  outer loop
    vertex 2.96778138060908 3.0816141317244803 3.0
    vertex 3.042706697487552 3.262499847897592 0.9999999999999999
    vertex 3.042706697487552 3.262499847897592 3.0
  endloop
endfacet
facet normal 0.9914448613738105 -0.1305261922200512 -0.0
  outer loop
    vertex 2.96778138060908 3.0816141317244803 0.9999999999999999
    vertex 2.942225750325881 2.887499847897589 3.0
    vertex 2.942225750325881 2.887499847897589 0.9999999999999999
  endloop
endfacet
facet normal 0.9914448613738105 -0.1305261922200512 -0.0
  outer loop
    vertex 2.942225750325881 2.887499847897589 3.0
    vertex 2.96778138060908 3.0816141317244803 0.9999999999999999
    vertex 2.96778138060908 3.0816141317244803 3.0
  endloop
endfacet
facet normal 0.0 0.0 -1.0
  outer loop
    vertex 3.045238889851541 4.513509688696088 0.0
    vertex 2.942225750325881 2.887499847897589 0.0
    vertex 2.6464421182012647 4.290652225503188 0.0
  endloop
endfacet
facet normal 0.0 0.0 -1.0
  outer loop
    vertex 2.942225750325881 2.887499847897589 0.0
    vertex 3.045238889851541 4.513509688696088 0.0
    vertex 2.96778138060908 3.0816141317244803 0.0
  endloop
endfacet
facet normal 0.0 0.0 -1.0
  outer loop
    vertex 2.96778138060908 3.0816141317244803 0.0
    vertex 3.045238889851541 4.513509688696088 0.0
    vertex 3.042706697487552 3.262499847897592 0.0
  endloop
endfacet
facet normal 0.0 0.0 -1.0
  outer loop
    vertex 3.042706697487552 3.262499847897592 0.0
    vertex 3.045238889851541 4.513509688696088 0.0
    vertex 3.1618956644359706 3.417829933787502 0.0
  endloop
endfacet
facet normal 0.0 0.0 -1.0
  outer loop
    vertex 3.1618956644359706 3.417829933787502 0.0
    vertex 3.045238889851541 4.513509688696088 0.0
    vertex 3.4881267468468025 4.625557268346881 0.0
  endloop
endfacet
facet normal 0.0 0.0 -1.0
  outer loop
    vertex 3.1618956644359706 3.417829933787502 0.0
    vertex 3.4881267468468025 4.625557268346881 0.0
    vertex 3.317225750325881 3.5370189007359207 0.0
  endloop
endfacet
facet normal 0.0 0.0 -1.0
  outer loop
    vertex 3.317225750325881 3.5370189007359207 0.0
    vertex 3.4881267468468025 4.625557268346881 0.0
    vertex 3.4981114664989903 3.611944217614391 0.0
  endloop
endfacet
facet normal 0.0 0.0 -1.0
  outer loop
    vertex 3.4981114664989903 3.611944217614391 0.0
    vertex 3.4881267468468025 4.625557268346881 0.0
    vertex 3.944923613639613 4.619159107069749 0.0
  endloop
endfacet
facet normal 0.0 0.0 -1.0
  outer loop
    vertex 3.4981114664989903 3.611944217614391 0.0
    vertex 3.944923613639613 4.619159107069749 0.0
    vertex 3.692225750325881 3.6374998478975917 0.0
  endloop
endfacet
facet normal 0.0 0.0 -1.0
  outer loop
    vertex 3.692225750325881 3.6374998478975917 0.0
    vertex 3.944923613639613 4.619159107069749 0.0
    vertex 3.886340034152772 3.611944217614391 0.0
  endloop
endfacet
facet normal 0.0 0.0 -1.0
  outer loop
    vertex 3.886340034152772 3.611944217614391 0.0
    vertex 3.944923613639613 4.619159107069749 0.0
    vertex 4.067225750325881 3.5370189007359207 0.0
  endloop
endfacet
facet normal 0.0 0.0 -1.0
  outer loop
    vertex 4.067225750325881 3.5370189007359207 0.0
    vertex 3.944923613639613 4.619159107069749 0.0
    vertex 4.384499538650556 4.494751228982269 0.0
  endloop
endfacet
facet normal 0.0 0.0 -1.0
  outer loop
    vertex 4.067225750325881 3.5370189007359207 0.0
    vertex 4.384499538650556 4.494751228982269 0.0
    vertex 4.222555836215792 3.417829933787502 0.0
  endloop
endfacet
facet normal 0.0 0.0 -1.0
  outer loop
    vertex 4.222555836215792 3.417829933787502 0.0
    vertex 4.384499538650556 4.494751228982269 0.0
    vertex 4.34174480316421 3.262499847897592 0.0
  endloop
endfacet
facet normal 0.0 0.0 -1.0
  outer loop
    vertex 4.34174480316421 3.262499847897592 0.0
    vertex 4.384499538650556 4.494751228982269 0.0
    vertex 4.416670120042682 3.0816141317244803 0.0
  endloop
endfacet
facet normal 0.0 0.0 -1.0
  outer loop
    vertex 4.416670120042682 3.0816141317244803 0.0
    vertex 4.384499538650556 4.494751228982269 0.0
    vertex 4.776898149023701 4.2608118253823575 0.0
  endloop
endfacet
facet normal 0.0 0.0 -1.0
  outer loop
    vertex 4.416670120042682 3.0816141317244803 0.0
    vertex 4.776898149023701 4.2608118253823575 0.0
    vertex 4.442225750325881 2.887499847897589 0.0
  endloop
endfacet
facet normal 0.0 0.0 -1.0
  outer loop
    vertex 4.442225750325881 2.887499847897589 0.0
    vertex 4.776898149023701 4.2608118253823575 0.0
    vertex 4.738009382450497 1.4843474702919888 0.0
  endloop
endfacet
facet normal 0.0 0.0 -1.0
  outer loop
    vertex 4.738009382450497 1.4843474702919888 0.0
    vertex 4.776898149023701 4.2608118253823575 0.0
    vertex 5.065537727810647 1.802827449199768 0.0
  endloop
endfacet
facet normal 0.0 0.0 -1.0
  outer loop
    vertex 5.065537727810647 1.802827449199768 0.0
    vertex 4.776898149023701 4.2608118253823575 0.0
    vertex 5.095378127931479 3.9332834800222063 0.0
  endloop
endfacet
facet normal 0.0 0.0 -1.0
  outer loop
    vertex 5.065537727810647 1.802827449199768 0.0
    vertex 5.095378127931479 3.9332834800222063 0.0
    vertex 5.29947713141056 2.195226059572913 0.0
  endloop
endfacet
facet normal 0.0 0.0 -1.0
  outer loop
    vertex 5.29947713141056 2.195226059572913 0.0
    vertex 5.095378127931479 3.9332834800222063 0.0
    vertex 5.31823559112438 3.5344867083719325 0.0
  endloop
endfacet
facet normal 0.0 0.0 -1.0
  outer loop
    vertex 5.29947713141056 2.195226059572913 0.0
    vertex 5.31823559112438 3.5344867083719325 0.0
    vertex 5.4238850094980435 2.6348019845838557 0.0
  endloop
endfacet
facet normal 0.0 0.0 -1.0
  outer loop
    vertex 5.4238850094980435 2.6348019845838557 0.0
    vertex 5.31823559112438 3.5344867083719325 0.0
    vertex 5.430283170775174 3.0915988513766663 0.0
  endloop
endfacet
facet normal 0.0 0.0 -1.0
  outer loop
    vertex 1.960566491153721 3.1401977112113215 0.0
    vertex 2.0662159095273833 2.240512987423248 0.0
    vertex 1.954168329876589 2.683400844418511 0.0
  endloop
endfacet
facet normal 0.0 0.0 -1.0
  outer loop
    vertex 2.0662159095273833 2.240512987423248 0.0
    vertex 1.960566491153721 3.1401977112113215 0.0
    vertex 2.084974369241204 3.5797736362222654 0.0
  endloop
endfacet
facet normal 0.0 0.0 -1.0
  outer loop
    vertex 2.0662159095273833 2.240512987423248 0.0
    vertex 2.084974369241204 3.5797736362222654 0.0
    vertex 2.289073372720282 1.841716215772972 0.0
  endloop
endfacet
facet normal 0.0 0.0 -1.0
  outer loop
    vertex 2.289073372720282 1.841716215772972 0.0
    vertex 2.084974369241204 3.5797736362222654 0.0
    vertex 2.3189137728411153 3.97217224659541 0.0
  endloop
endfacet
facet normal 0.0 0.0 -1.0
  outer loop
    vertex 2.289073372720282 1.841716215772972 0.0
    vertex 2.3189137728411153 3.97217224659541 0.0
    vertex 2.6075533516280616 1.5141878704128222 0.0
  endloop
endfacet
facet normal 0.0 0.0 -1.0
  outer loop
    vertex 2.6075533516280616 1.5141878704128222 0.0
    vertex 2.3189137728411153 3.97217224659541 0.0
    vertex 2.6464421182012647 4.290652225503188 0.0
  endloop
endfacet
facet normal 0.0 0.0 -1.0
  outer loop
    vertex 2.6075533516280616 1.5141878704128222 0.0
    vertex 2.6464421182012647 4.290652225503188 0.0
    vertex 2.999951962001205 1.2802484668129117 0.0
  endloop
endfacet
facet normal 0.0 0.0 -1.0
  outer loop
    vertex 2.999951962001205 1.2802484668129117 0.0
    vertex 2.6464421182012647 4.290652225503188 0.0
    vertex 2.942225750325881 2.887499847897589 0.0
  endloop
endfacet
facet normal 0.0 0.0 -1.0
  outer loop
    vertex 2.999951962001205 1.2802484668129117 0.0
    vertex 2.942225750325881 2.887499847897589 0.0
    vertex 2.96778138060908 2.6933855640706983 0.0
  endloop
endfacet
facet normal 0.0 0.0 -1.0
  outer loop
    vertex 2.999951962001205 1.2802484668129117 0.0
    vertex 2.96778138060908 2.6933855640706983 0.0
    vertex 3.042706697487552 2.5124998478975877 0.0
  endloop
endfacet
facet normal 0.0 0.0 -1.0
  outer loop
    vertex 2.999951962001205 1.2802484668129117 0.0
    vertex 3.042706697487552 2.5124998478975877 0.0
    vertex 3.4395278870121486 1.1558405887254282 0.0
  endloop
endfacet
facet normal 0.0 0.0 -1.0
  outer loop
    vertex 3.4395278870121486 1.1558405887254282 0.0
    vertex 3.042706697487552 2.5124998478975877 0.0
    vertex 3.16189566443597 2.3571697620076777 0.0
  endloop
endfacet
facet normal 0.0 0.0 -1.0
  outer loop
    vertex 3.4395278870121486 1.1558405887254282 0.0
    vertex 3.16189566443597 2.3571697620076777 0.0
    vertex 3.317225750325881 2.2379807950592596 0.0
  endloop
endfacet
facet normal 0.0 0.0 -1.0
  outer loop
    vertex 3.4395278870121486 1.1558405887254282 0.0
    vertex 3.317225750325881 2.2379807950592596 0.0
    vertex 3.49811146649899 2.163055478180787 0.0
  endloop
endfacet
facet normal 0.0 0.0 -1.0
  outer loop
    vertex 3.4395278870121486 1.1558405887254282 0.0
    vertex 3.49811146649899 2.163055478180787 0.0
    vertex 3.8963247538049584 1.1494424274482968 0.0
  endloop
endfacet
facet normal 0.0 0.0 -1.0
  outer loop
    vertex 3.8963247538049584 1.1494424274482968 0.0
    vertex 3.49811146649899 2.163055478180787 0.0
    vertex 3.692225750325881 2.137499847897588 0.0
  endloop
endfacet
facet normal 0.0 0.0 -1.0
  outer loop
    vertex 3.8963247538049584 1.1494424274482968 0.0
    vertex 3.692225750325881 2.137499847897588 0.0
    vertex 3.886340034152772 2.163055478180787 0.0
  endloop
endfacet
facet normal 0.0 0.0 -1.0
  outer loop
    vertex 3.8963247538049584 1.1494424274482968 0.0
    vertex 3.886340034152772 2.163055478180787 0.0
    vertex 4.06722575032588 2.2379807950592587 0.0
  endloop
endfacet
facet normal 0.0 0.0 -1.0
  outer loop
    vertex 3.8963247538049584 1.1494424274482968 0.0
    vertex 4.06722575032588 2.2379807950592587 0.0
    vertex 4.339212610800222 1.2614900070990904 0.0
  endloop
endfacet
facet normal 0.0 0.0 -1.0
  outer loop
    vertex 4.339212610800222 1.2614900070990904 0.0
    vertex 4.06722575032588 2.2379807950592587 0.0
    vertex 4.222555836215792 2.3571697620076777 0.0
  endloop
endfacet
facet normal 0.0 0.0 -1.0
  outer loop
    vertex 4.339212610800222 1.2614900070990904 0.0
    vertex 4.222555836215792 2.3571697620076777 0.0
    vertex 4.34174480316421 2.5124998478975877 0.0
  endloop
endfacet
facet normal 0.0 0.0 -1.0
  outer loop
    vertex 4.339212610800222 1.2614900070990904 0.0
    vertex 4.34174480316421 2.5124998478975877 0.0
    vertex 4.738009382450497 1.4843474702919888 0.0
  endloop
endfacet
facet normal 0.0 0.0 -1.0
  outer loop
    vertex 4.738009382450497 1.4843474702919888 0.0
    vertex 4.34174480316421 2.5124998478975877 0.0
    vertex 4.416670120042682 2.693385564070697 0.0
  endloop
endfacet
facet normal 0.0 0.0 -1.0
  outer loop
    vertex 4.738009382450497 1.4843474702919888 0.0
    vertex 4.416670120042682 2.693385564070697 0.0
    vertex 4.442225750325881 2.887499847897589 0.0
  endloop
endfacet
facet normal 0.9914448613738105 0.13052619222005168 -0.0
  outer loop
    vertex 2.942225750325881 2.887499847897589 0.9999999999999999
    vertex 2.96778138060908 2.6933855640706983 3.0
    vertex 2.96778138060908 2.6933855640706983 0.9999999999999999
  endloop
endfacet
facet normal 0.9914448613738105 0.13052619222005168 -0.0
  outer loop
    vertex 2.96778138060908 2.6933855640706983 3.0
    vertex 2.942225750325881 2.887499847897589 0.9999999999999999
    vertex 2.942225750325881 2.887499847897589 3.0
  endloop
endfacet
facet normal 0.9238795325112877 0.3826834323650879 -0.0
  outer loop
    vertex 2.96778138060908 2.6933855640706983 0.9999999999999999
    vertex 3.042706697487552 2.5124998478975877 3.0
    vertex 3.042706697487552 2.5124998478975877 0.9999999999999999
  endloop
endfacet
facet normal 0.9238795325112877 0.3826834323650879 -0.0
  outer loop
    vertex 3.042706697487552 2.5124998478975877 3.0
    vertex 2.96778138060908 2.6933855640706983 0.9999999999999999
    vertex 2.96778138060908 2.6933855640706983 3.0
  endloop
endfacet
facet normal 0.793353340291235 0.6087614290087211 -0.0
  outer loop
    vertex 3.042706697487552 2.5124998478975877 0.9999999999999999
    vertex 3.16189566443597 2.3571697620076777 3.0
    vertex 3.16189566443597 2.3571697620076777 0.9999999999999999
  endloop
endfacet
facet normal 0.793353340291235 0.6087614290087211 -0.0
  outer loop
    vertex 3.16189566443597 2.3571697620076777 3.0
    vertex 3.042706697487552 2.5124998478975877 0.9999999999999999
    vertex 3.042706697487552 2.5124998478975877 3.0
  endloop
endfacet
facet normal 0.6087614290087193 0.7933533402912363 -0.0
  outer loop
    vertex 3.16189566443597 2.3571697620076777 3.0
    vertex 3.317225750325881 2.2379807950592596 0.9999999999999999
    vertex 3.16189566443597 2.3571697620076777 0.9999999999999999
  endloop
endfacet
facet normal 0.6087614290087193 0.7933533402912363 -0.0
  outer loop
    vertex 3.317225750325881 2.2379807950592596 0.9999999999999999
    vertex 3.16189566443597 2.3571697620076777 3.0
    vertex 3.317225750325881 2.2379807950592596 3.0
  endloop
endfacet
facet normal 0.3826834323650927 0.9238795325112857 -0.0
  outer loop
    vertex 3.317225750325881 2.2379807950592596 3.0
    vertex 3.49811146649899 2.163055478180787 0.9999999999999999
    vertex 3.317225750325881 2.2379807950592596 0.9999999999999999
  endloop
endfacet
facet normal 0.3826834323650927 0.9238795325112857 -0.0
  outer loop
    vertex 3.49811146649899 2.163055478180787 0.9999999999999999
    vertex 3.317225750325881 2.2379807950592596 3.0
    vertex 3.49811146649899 2.163055478180787 3.0
  endloop
endfacet
facet normal 0.1305261922200512 0.9914448613738105 -0.0
  outer loop
    vertex 3.49811146649899 2.163055478180787 3.0
    vertex 3.692225750325881 2.137499847897588 0.9999999999999999
    vertex 3.49811146649899 2.163055478180787 0.9999999999999999
  endloop
endfacet
facet normal 0.1305261922200512 0.9914448613738105 -0.0
  outer loop
    vertex 3.692225750325881 2.137499847897588 0.9999999999999999
    vertex 3.49811146649899 2.163055478180787 3.0
    vertex 3.692225750325881 2.137499847897588 3.0
  endloop
endfacet
facet normal -0.13052619222005168 0.9914448613738105 -0.0
  outer loop
    vertex 3.692225750325881 2.137499847897588 3.0
    vertex 3.886340034152772 2.163055478180787 0.9999999999999999
    vertex 3.692225750325881 2.137499847897588 0.9999999999999999
  endloop
endfacet
facet normal -0.13052619222005168 0.9914448613738105 -0.0
  outer loop
    vertex 3.886340034152772 2.163055478180787 0.9999999999999999
    vertex 3.692225750325881 2.137499847897588 3.0
    vertex 3.886340034152772 2.163055478180787 3.0
  endloop
endfacet
facet normal -0.3826834323650895 0.9238795325112868 -0.0
  outer loop
    vertex 3.886340034152772 2.163055478180787 3.0
    vertex 4.06722575032588 2.2379807950592587 0.9999999999999999
    vertex 3.886340034152772 2.163055478180787 0.9999999999999999
  endloop
endfacet
facet normal -0.3826834323650895 0.9238795325112868 -0.0
  outer loop
    vertex 4.06722575032588 2.2379807950592587 0.9999999999999999
    vertex 3.886340034152772 2.163055478180787 3.0
    vertex 4.06722575032588 2.2379807950592587 3.0
  endloop
endfacet
facet normal -0.6087614290087207 0.7933533402912352 -0.0
  outer loop
    vertex 4.06722575032588 2.2379807950592587 3.0
    vertex 4.222555836215792 2.3571697620076777 0.9999999999999999
    vertex 4.06722575032588 2.2379807950592587 0.9999999999999999
  endloop
endfacet
facet normal -0.6087614290087207 0.7933533402912352 -0.0
  outer loop
    vertex 4.222555836215792 2.3571697620076777 0.9999999999999999
    vertex 4.06722575032588 2.2379807950592587 3.0
    vertex 4.222555836215792 2.3571697620076777 3.0
  endloop
endfacet
facet normal 0.0 0.0 -1.0
  outer loop
    vertex 2.96778138060908 3.0816141317244803 0.9999999999999999
    vertex 2.96778138060908 2.6933855640706983 0.9999999999999999
    vertex 2.942225750325881 2.887499847897589 0.9999999999999999
  endloop
endfacet
facet normal 0.0 0.0 -1.0
  outer loop
    vertex 2.96778138060908 2.6933855640706983 0.9999999999999999
    vertex 2.96778138060908 3.0816141317244803 0.9999999999999999
    vertex 3.042706697487552 3.262499847897592 0.9999999999999999
  endloop
endfacet
facet normal 0.0 0.0 -1.0
  outer loop
    vertex 2.96778138060908 2.6933855640706983 0.9999999999999999
    vertex 3.042706697487552 3.262499847897592 0.9999999999999999
    vertex 3.042706697487552 2.5124998478975877 0.9999999999999999
  endloop
endfacet
facet normal 0.0 0.0 -1.0
  outer loop
    vertex 3.042706697487552 2.5124998478975877 0.9999999999999999
    vertex 3.042706697487552 3.262499847897592 0.9999999999999999
    vertex 3.1618956644359706 3.417829933787502 0.9999999999999999
  endloop
endfacet
facet normal 0.0 0.0 -1.0
  outer loop
    vertex 3.042706697487552 2.5124998478975877 0.9999999999999999
    vertex 3.1618956644359706 3.417829933787502 0.9999999999999999
    vertex 3.16189566443597 2.3571697620076777 0.9999999999999999
  endloop
endfacet
facet normal 0.0 0.0 -1.0
  outer loop
    vertex 3.16189566443597 2.3571697620076777 0.9999999999999999
    vertex 3.1618956644359706 3.417829933787502 0.9999999999999999
    vertex 3.317225750325881 2.2379807950592596 0.9999999999999999
  endloop
endfacet
facet normal 0.0 0.0 -1.0
  outer loop
    vertex 3.317225750325881 2.2379807950592596 0.9999999999999999
    vertex 3.1618956644359706 3.417829933787502 0.9999999999999999
    vertex 3.317225750325881 3.5370189007359207 0.9999999999999999
  endloop
endfacet
facet normal 0.0 0.0 -1.0
  outer loop
    vertex 3.317225750325881 2.2379807950592596 0.9999999999999999
    vertex 3.317225750325881 3.5370189007359207 0.9999999999999999
    vertex 3.4981114664989903 3.611944217614391 0.9999999999999999
  endloop
endfacet
facet normal 0.0 0.0 -1.0
  outer loop
    vertex 3.317225750325881 2.2379807950592596 0.9999999999999999
    vertex 3.4981114664989903 3.611944217614391 0.9999999999999999
    vertex 3.49811146649899 2.163055478180787 0.9999999999999999
  endloop
endfacet
facet normal 0.0 0.0 -1.0
  outer loop
    vertex 3.49811146649899 2.163055478180787 0.9999999999999999
    vertex 3.4981114664989903 3.611944217614391 0.9999999999999999
    vertex 3.692225750325881 2.137499847897588 0.9999999999999999
  endloop
endfacet
facet normal 0.0 0.0 -1.0
  outer loop
    vertex 3.692225750325881 2.137499847897588 0.9999999999999999
    vertex 3.4981114664989903 3.611944217614391 0.9999999999999999
    vertex 3.692225750325881 3.6374998478975917 0.9999999999999999
  endloop
endfacet
facet normal 0.0 0.0 -1.0
  outer loop
    vertex 3.692225750325881 2.137499847897588 0.9999999999999999
    vertex 3.692225750325881 3.6374998478975917 0.9999999999999999
    vertex 3.886340034152772 3.611944217614391 0.9999999999999999
  endloop
endfacet
facet normal 0.0 0.0 -1.0
  outer loop
    vertex 3.692225750325881 2.137499847897588 0.9999999999999999
    vertex 3.886340034152772 3.611944217614391 0.9999999999999999
    vertex 3.886340034152772 2.163055478180787 0.9999999999999999
  endloop
endfacet
facet normal 0.0 0.0 -1.0
  outer loop
    vertex 3.886340034152772 2.163055478180787 0.9999999999999999
    vertex 3.886340034152772 3.611944217614391 0.9999999999999999
    vertex 4.067225750325881 3.5370189007359207 0.9999999999999999
  endloop
endfacet
facet normal 0.0 0.0 -1.0
  outer loop
    vertex 3.886340034152772 2.163055478180787 0.9999999999999999
    vertex 4.067225750325881 3.5370189007359207 0.9999999999999999
    vertex 4.06722575032588 2.2379807950592587 0.9999999999999999
  endloop
endfacet
facet normal 0.0 0.0 -1.0
  outer loop
    vertex 4.06722575032588 2.2379807950592587 0.9999999999999999
    vertex 4.067225750325881 3.5370189007359207 0.9999999999999999
    vertex 4.222555836215792 2.3571697620076777 0.9999999999999999
  endloop
endfacet
facet normal 0.0 0.0 -1.0
  outer loop
    vertex 4.222555836215792 2.3571697620076777 0.9999999999999999
    vertex 4.067225750325881 3.5370189007359207 0.9999999999999999
    vertex 4.222555836215792 3.417829933787502 0.9999999999999999
  endloop
endfacet
facet normal 0.0 0.0 -1.0
  outer loop
    vertex 4.222555836215792 2.3571697620076777 0.9999999999999999
    vertex 4.222555836215792 3.417829933787502 0.9999999999999999
    vertex 4.34174480316421 3.262499847897592 0.9999999999999999
  endloop
endfacet
facet normal 0.0 0.0 -1.0
  outer loop
    vertex 4.222555836215792 2.3571697620076777 0.9999999999999999
    vertex 4.34174480316421 3.262499847897592 0.9999999999999999
    vertex 4.34174480316421 2.5124998478975877 0.9999999999999999
  endloop
endfacet
facet normal 0.0 0.0 -1.0
  outer loop
    vertex 4.34174480316421 2.5124998478975877 0.9999999999999999
    vertex 4.34174480316421 3.262499847897592 0.9999999999999999
    vertex 4.416670120042682 3.0816141317244803 0.9999999999999999
  endloop
endfacet
facet normal 0.0 0.0 -1.0
  outer loop
    vertex 4.34174480316421 2.5124998478975877 0.9999999999999999
    vertex 4.416670120042682 3.0816141317244803 0.9999999999999999
    vertex 4.416670120042682 2.693385564070697 0.9999999999999999
  endloop
endfacet
facet normal 0.0 0.0 -1.0
  outer loop
    vertex 4.416670120042682 2.693385564070697 0.9999999999999999
    vertex 4.416670120042682 3.0816141317244803 0.9999999999999999
    vertex 4.442225750325881 2.887499847897589 0.9999999999999999
  endloop
endfacet
facet normal 0.8729430685078807 0.48782209784310265 -0.0
  outer loop
    vertex 5.095378127931479 3.9332834800222063 0.0
    vertex 5.31823559112438 3.5344867083719325 2.9899999999999998
    vertex 5.31823559112438 3.5344867083719325 0.0
  endloop
endfacet
facet normal 0.8729430685078807 0.48782209784310265 -0.0
  outer loop
    vertex 5.31823559112438 3.5344867083719325 2.9899999999999998
    vertex 5.095378127931479 3.9332834800222063 0.0
    vertex 5.095378127931479 3.9332834800222063 2.9899999999999998
  endloop
endfacet
facet normal 0.7169406052081363 0.6971342543612324 -0.0
  outer loop
    vertex 4.776898149023701 4.2608118253823575 0.0
    vertex 5.095378127931479 3.9332834800222063 2.9899999999999998
    vertex 5.095378127931479 3.9332834800222063 0.0
  endloop
endfacet
facet normal 0.7169406052081363 0.6971342543612324 -0.0
  outer loop
    vertex 5.095378127931479 3.9332834800222063 2.9899999999999998
    vertex 4.776898149023701 4.2608118253823575 0.0
    vertex 4.776898149023701 4.2608118253823575 2.9899999999999998
  endloop
endfacet
facet normal 0.5120798244638184 0.8589378635134821 -0.0
  outer loop
    vertex 4.384499538650556 4.494751228982269 2.9899999999999998
    vertex 4.776898149023701 4.2608118253823575 0.0
    vertex 4.384499538650556 4.494751228982269 0.0
  endloop
endfacet
facet normal 0.5120798244638184 0.8589378635134821 -0.0
  outer loop
    vertex 4.776898149023701 4.2608118253823575 0.0
    vertex 4.384499538650556 4.494751228982269 2.9899999999999998
    vertex 4.776898149023701 4.2608118253823575 2.9899999999999998
  endloop
endfacet
facet normal 0.27232164993421165 0.9622062767292202 -0.0
  outer loop
    vertex 3.944923613639613 4.619159107069749 2.9899999999999998
    vertex 4.384499538650556 4.494751228982269 0.0
    vertex 3.944923613639613 4.619159107069749 0.0
  endloop
endfacet
facet normal 0.27232164993421165 0.9622062767292202 -0.0
  outer loop
    vertex 4.384499538650556 4.494751228982269 0.0
    vertex 3.944923613639613 4.619159107069749 2.9899999999999998
    vertex 4.384499538650556 4.494751228982269 2.9899999999999998
  endloop
endfacet
facet normal 0.01400520499440261 0.9999019223069155 -0.0
  outer loop
    vertex 3.4881267468468025 4.625557268346881 2.9899999999999998
    vertex 3.944923613639613 4.619159107069749 0.0
    vertex 3.4881267468468025 4.625557268346881 0.0
  endloop
endfacet
facet normal 0.01400520499440261 0.9999019223069155 -0.0
  outer loop
    vertex 3.944923613639613 4.619159107069749 0.0
    vertex 3.4881267468468025 4.625557268346881 2.9899999999999998
    vertex 3.944923613639613 4.619159107069749 2.9899999999999998
  endloop
endfacet
facet normal -0.24526567152108417 0.9694559042954516 -0.0
  outer loop
    vertex 3.045238889851541 4.513509688696088 2.9899999999999998
    vertex 3.4881267468468025 4.625557268346881 0.0
    vertex 3.045238889851541 4.513509688696088 0.0
  endloop
endfacet
facet normal -0.24526567152108417 0.9694559042954516 -0.0
  outer loop
    vertex 3.4881267468468025 4.625557268346881 0.0
    vertex 3.045238889851541 4.513509688696088 2.9899999999999998
    vertex 3.4881267468468025 4.625557268346881 2.9899999999999998
  endloop
endfacet
facet normal -0.4878220978430985 0.8729430685078832 -0.0
  outer loop
    vertex 2.6464421182012647 4.290652225503188 2.9899999999999998
    vertex 3.045238889851541 4.513509688696088 0.0
    vertex 2.6464421182012647 4.290652225503188 0.0
  endloop
endfacet
facet normal -0.4878220978430985 0.8729430685078832 -0.0
  outer loop
    vertex 3.045238889851541 4.513509688696088 0.0
    vertex 2.6464421182012647 4.290652225503188 2.9899999999999998
    vertex 3.045238889851541 4.513509688696088 2.9899999999999998
  endloop
endfacet
facet normal -0.6971342543612341 0.7169406052081345 -0.0
  outer loop
    vertex 2.3189137728411153 3.97217224659541 2.9899999999999998
    vertex 2.6464421182012647 4.290652225503188 0.0
    vertex 2.3189137728411153 3.97217224659541 0.0
  endloop
endfacet
facet normal -0.6971342543612341 0.7169406052081345 -0.0
  outer loop
    vertex 2.6464421182012647 4.290652225503188 0.0
    vertex 2.3189137728411153 3.97217224659541 2.9899999999999998
    vertex 2.6464421182012647 4.290652225503188 2.9899999999999998
  endloop
endfacet
facet normal -0.8589378635134821 0.5120798244638184 0.0
  outer loop
    vertex 2.3189137728411153 3.97217224659541 2.9899999999999998
    vertex 2.084974369241204 3.5797736362222654 0.0
    vertex 2.084974369241204 3.5797736362222654 2.9899999999999998
  endloop
endfacet
facet normal -0.8589378635134821 0.5120798244638184 0.0
  outer loop
    vertex 2.084974369241204 3.5797736362222654 0.0
    vertex 2.3189137728411153 3.97217224659541 2.9899999999999998
    vertex 2.3189137728411153 3.97217224659541 0.0
  endloop
endfacet
facet normal -0.9622062767292189 0.27232164993421637 0.0
  outer loop
    vertex 2.084974369241204 3.5797736362222654 2.9899999999999998
    vertex 1.960566491153721 3.1401977112113215 0.0
    vertex 1.960566491153721 3.1401977112113215 2.9899999999999998
  endloop
endfacet
facet normal -0.9622062767292189 0.27232164993421637 0.0
  outer loop
    vertex 1.960566491153721 3.1401977112113215 0.0
    vertex 2.084974369241204 3.5797736362222654 2.9899999999999998
    vertex 2.084974369241204 3.5797736362222654 0.0
  endloop
endfacet
facet normal -0.9999019223069155 0.014005204994401834 0.0
  outer loop
    vertex 1.960566491153721 3.1401977112113215 2.9899999999999998
    vertex 1.954168329876589 2.683400844418511 0.0
    vertex 1.954168329876589 2.683400844418511 2.9899999999999998
  endloop
endfacet
facet normal -0.9999019223069155 0.014005204994401834 0.0
  outer loop
    vertex 1.954168329876589 2.683400844418511 0.0
    vertex 1.960566491153721 3.1401977112113215 2.9899999999999998
    vertex 1.960566491153721 3.1401977112113215 0.0
  endloop
endfacet
facet normal -0.9694559042954514 -0.24526567152108486 0.0
  outer loop
    vertex 1.954168329876589 2.683400844418511 2.9899999999999998
    vertex 2.0662159095273833 2.240512987423248 0.0
    vertex 2.0662159095273833 2.240512987423248 2.9899999999999998
  endloop
endfacet
facet normal -0.9694559042954514 -0.24526567152108486 0.0
  outer loop
    vertex 2.0662159095273833 2.240512987423248 0.0
    vertex 1.954168329876589 2.683400844418511 2.9899999999999998
    vertex 1.954168329876589 2.683400844418511 0.0
  endloop
endfacet
facet normal -0.8729430685078845 -0.48782209784309594 0.0
  outer loop
    vertex 2.0662159095273833 2.240512987423248 2.9899999999999998
    vertex 2.289073372720282 1.841716215772972 0.0
    vertex 2.289073372720282 1.841716215772972 2.9899999999999998
  endloop
endfacet
facet normal -0.8729430685078845 -0.48782209784309594 0.0
  outer loop
    vertex 2.289073372720282 1.841716215772972 0.0
    vertex 2.0662159095273833 2.240512987423248 2.9899999999999998
    vertex 2.0662159095273833 2.240512987423248 0.0
  endloop
endfacet
facet normal -0.7169406052081337 -0.697134254361235 0.0
  outer loop
    vertex 2.289073372720282 1.841716215772972 2.9899999999999998
    vertex 2.6075533516280616 1.5141878704128222 0.0
    vertex 2.6075533516280616 1.5141878704128222 2.9899999999999998
  endloop
endfacet
facet normal -0.7169406052081337 -0.697134254361235 0.0
  outer loop
    vertex 2.6075533516280616 1.5141878704128222 0.0
    vertex 2.289073372720282 1.841716215772972 2.9899999999999998
    vertex 2.289073372720282 1.841716215772972 0.0
  endloop
endfacet
facet normal -0.5120798244638178 -0.8589378635134824 0.0
  outer loop
    vertex 2.999951962001205 1.2802484668129117 2.9899999999999998
    vertex 2.6075533516280616 1.5141878704128222 0.0
    vertex 2.999951962001205 1.2802484668129117 0.0
  endloop
endfacet
facet normal -0.5120798244638178 -0.8589378635134824 0.0
  outer loop
    vertex 2.6075533516280616 1.5141878704128222 0.0
    vertex 2.999951962001205 1.2802484668129117 2.9899999999999998
    vertex 2.6075533516280616 1.5141878704128222 2.9899999999999998
  endloop
endfacet
facet normal -0.27232164993421737 -0.9622062767292187 0.0
  outer loop
    vertex 3.4395278870121486 1.1558405887254282 2.9899999999999998
    vertex 2.999951962001205 1.2802484668129117 0.0
    vertex 3.4395278870121486 1.1558405887254282 0.0
  endloop
endfacet
facet normal -0.27232164993421737 -0.9622062767292187 0.0
  outer loop
    vertex 2.999951962001205 1.2802484668129117 0.0
    vertex 3.4395278870121486 1.1558405887254282 2.9899999999999998
    vertex 2.999951962001205 1.2802484668129117 2.9899999999999998
  endloop
endfacet
facet normal -0.014005204994401084 -0.9999019223069155 0.0
  outer loop
    vertex 3.8963247538049584 1.1494424274482968 2.9899999999999998
    vertex 3.4395278870121486 1.1558405887254282 0.0
    vertex 3.8963247538049584 1.1494424274482968 0.0
  endloop
endfacet
facet normal -0.014005204994401084 -0.9999019223069155 0.0
  outer loop
    vertex 3.4395278870121486 1.1558405887254282 0.0
    vertex 3.8963247538049584 1.1494424274482968 2.9899999999999998
    vertex 3.4395278870121486 1.1558405887254282 2.9899999999999998
  endloop
endfacet
facet normal 0.24526567152108303 -0.9694559042954518 0.0
  outer loop
    vertex 4.339212610800222 1.2614900070990904 2.9899999999999998
    vertex 3.8963247538049584 1.1494424274482968 0.0
    vertex 4.339212610800222 1.2614900070990904 0.0
  endloop
endfacet
facet normal 0.24526567152108303 -0.9694559042954518 0.0
  outer loop
    vertex 3.8963247538049584 1.1494424274482968 0.0
    vertex 4.339212610800222 1.2614900070990904 2.9899999999999998
    vertex 3.8963247538049584 1.1494424274482968 2.9899999999999998
  endloop
endfacet
facet normal 0.4878220978430966 -0.8729430685078842 0.0
  outer loop
    vertex 4.738009382450497 1.4843474702919888 2.9899999999999998
    vertex 4.339212610800222 1.2614900070990904 0.0
    vertex 4.738009382450497 1.4843474702919888 0.0
  endloop
endfacet
facet normal 0.4878220978430966 -0.8729430685078842 0.0
  outer loop
    vertex 4.339212610800222 1.2614900070990904 0.0
    vertex 4.738009382450497 1.4843474702919888 2.9899999999999998
    vertex 4.339212610800222 1.2614900070990904 2.9899999999999998
  endloop
endfacet
facet normal 0.6971342543612347 -0.716940605208134 0.0
  outer loop
    vertex 5.065537727810647 1.802827449199768 2.9899999999999998
    vertex 4.738009382450497 1.4843474702919888 0.0
    vertex 5.065537727810647 1.802827449199768 0.0
  endloop
endfacet
facet normal 0.6971342543612347 -0.716940605208134 0.0
  outer loop
    vertex 4.738009382450497 1.4843474702919888 0.0
    vertex 5.065537727810647 1.802827449199768 2.9899999999999998
    vertex 4.738009382450497 1.4843474702919888 2.9899999999999998
  endloop
endfacet
facet normal 0.8589378635134811 -0.5120798244638198 -0.0
  outer loop
    vertex 5.29947713141056 2.195226059572913 0.0
    vertex 5.065537727810647 1.802827449199768 2.9899999999999998
    vertex 5.065537727810647 1.802827449199768 0.0
  endloop
endfacet
facet normal 0.8589378635134811 -0.5120798244638198 -0.0
  outer loop
    vertex 5.065537727810647 1.802827449199768 2.9899999999999998
    vertex 5.29947713141056 2.195226059572913 0.0
    vertex 5.29947713141056 2.195226059572913 2.9899999999999998
  endloop
endfacet
facet normal 0.9622062767292184 -0.27232164993421776 -0.0
  outer loop
    vertex 5.4238850094980435 2.6348019845838557 0.0
    vertex 5.29947713141056 2.195226059572913 2.9899999999999998
    vertex 5.29947713141056 2.195226059572913 0.0
  endloop
endfacet
facet normal 0.9622062767292184 -0.27232164993421776 -0.0
  outer loop
    vertex 5.29947713141056 2.195226059572913 2.9899999999999998
    vertex 5.4238850094980435 2.6348019845838557 0.0
    vertex 5.4238850094980435 2.6348019845838557 2.9899999999999998
  endloop
endfacet
facet normal 0.9999019223069155 -0.01400520499439952 -0.0
  outer loop
    vertex 5.430283170775174 3.0915988513766663 0.0
    vertex 5.4238850094980435 2.6348019845838557 2.9899999999999998
    vertex 5.4238850094980435 2.6348019845838557 0.0
  endloop
endfacet
facet normal 0.9999019223069155 -0.01400520499439952 -0.0
  outer loop
    vertex 5.4238850094980435 2.6348019845838557 2.9899999999999998
    vertex 5.430283170775174 3.0915988513766663 0.0
    vertex 5.430283170775174 3.0915988513766663 2.9899999999999998
  endloop
endfacet
facet normal 0.9694559042954523 0.24526567152108175 -0.0
  outer loop
    vertex 5.31823559112438 3.5344867083719325 0.0
    vertex 5.430283170775174 3.0915988513766663 2.9899999999999998
    vertex 5.430283170775174 3.0915988513766663 0.0
  endloop
endfacet
facet normal 0.9694559042954523 0.24526567152108175 -0.0
  outer loop
    vertex 5.430283170775174 3.0915988513766663 2.9899999999999998
    vertex 5.31823559112438 3.5344867083719325 0.0
    vertex 5.31823559112438 3.5344867083719325 2.9899999999999998
  endloop
endfacet
facet normal -0.0 -0.0 1.0
  outer loop
    vertex 2.0662159095273833 2.240512987423248 2.9899999999999998
    vertex 1.960566491153721 3.1401977112113215 2.9899999999999998
    vertex 1.954168329876589 2.683400844418511 2.9899999999999998
  endloop
endfacet
facet normal -0.0 -0.0 1.0
  outer loop
    vertex 1.960566491153721 3.1401977112113215 2.9899999999999998
    vertex 2.0662159095273833 2.240512987423248 2.9899999999999998
    vertex 2.084974369241204 3.5797736362222654 2.9899999999999998
  endloop
endfacet
facet normal -0.0 -0.0 1.0
  outer loop
    vertex 2.084974369241204 3.5797736362222654 2.9899999999999998
    vertex 2.0662159095273833 2.240512987423248 2.9899999999999998
    vertex 2.289073372720282 1.841716215772972 2.9899999999999998
  endloop
endfacet
facet normal -0.0 -0.0 1.0
  outer loop
    vertex 2.084974369241204 3.5797736362222654 2.9899999999999998
    vertex 2.289073372720282 1.841716215772972 2.9899999999999998
    vertex 2.3189137728411153 3.97217224659541 2.9899999999999998
  endloop
endfacet
facet normal -0.0 -0.0 1.0
  outer loop
    vertex 2.3189137728411153 3.97217224659541 2.9899999999999998
    vertex 2.289073372720282 1.841716215772972 2.9899999999999998
    vertex 2.6075533516280616 1.5141878704128222 2.9899999999999998
  endloop
endfacet
facet normal -0.0 -0.0 1.0
  outer loop
    vertex 2.3189137728411153 3.97217224659541 2.9899999999999998
    vertex 2.6075533516280616 1.5141878704128222 2.9899999999999998
    vertex 2.6464421182012647 4.290652225503188 2.9899999999999998
  endloop
endfacet
facet normal -0.0 -0.0 1.0
  outer loop
    vertex 2.6464421182012647 4.290652225503188 2.9899999999999998
    vertex 2.6075533516280616 1.5141878704128222 2.9899999999999998
    vertex 2.999951962001205 1.2802484668129117 2.9899999999999998
  endloop
endfacet
facet normal -0.0 -0.0 1.0
  outer loop
    vertex 2.6464421182012647 4.290652225503188 2.9899999999999998
    vertex 2.999951962001205 1.2802484668129117 2.9899999999999998
    vertex 2.942225750325881 2.887499847897589 3.0
  endloop
endfacet
facet normal -0.0 -0.0 1.0
  outer loop
    vertex 2.942225750325881 2.887499847897589 3.0
    vertex 2.999951962001205 1.2802484668129117 2.9899999999999998
    vertex 2.96778138060908 2.6933855640706983 3.0
  endloop
endfacet
facet normal -0.0 -0.0 1.0
  outer loop
    vertex 2.96778138060908 2.6933855640706983 3.0
    vertex 2.999951962001205 1.2802484668129117 2.9899999999999998
    vertex 3.042706697487552 2.5124998478975877 3.0
  endloop
endfacet
facet normal -0.0 -0.0 1.0
  outer loop
    vertex 3.042706697487552 2.5124998478975877 3.0
    vertex 2.999951962001205 1.2802484668129117 2.9899999999999998
    vertex 3.4395278870121486 1.1558405887254282 2.9899999999999998
  endloop
endfacet
facet normal -0.0 -0.0 1.0
  outer loop
    vertex 3.042706697487552 2.5124998478975877 3.0
    vertex 3.4395278870121486 1.1558405887254282 2.9899999999999998
    vertex 3.16189566443597 2.3571697620076777 3.0
  endloop
endfacet
facet normal -0.0 -0.0 1.0
  outer loop
    vertex 3.16189566443597 2.3571697620076777 3.0
    vertex 3.4395278870121486 1.1558405887254282 2.9899999999999998
    vertex 3.317225750325881 2.2379807950592596 3.0
  endloop
endfacet
facet normal -0.0 -0.0 1.0
  outer loop
    vertex 3.317225750325881 2.2379807950592596 3.0
    vertex 3.4395278870121486 1.1558405887254282 2.9899999999999998
    vertex 3.49811146649899 2.163055478180787 3.0
  endloop
endfacet
facet normal -0.0 -0.0 1.0
  outer loop
    vertex 3.49811146649899 2.163055478180787 3.0
    vertex 3.4395278870121486 1.1558405887254282 2.9899999999999998
    vertex 3.8963247538049584 1.1494424274482968 2.9899999999999998
  endloop
endfacet
facet normal -0.0 -0.0 1.0
  outer loop
    vertex 3.49811146649899 2.163055478180787 3.0
    vertex 3.8963247538049584 1.1494424274482968 2.9899999999999998
    vertex 3.692225750325881 2.137499847897588 3.0
  endloop
endfacet
facet normal -0.0 -0.0 1.0
  outer loop
    vertex 3.692225750325881 2.137499847897588 3.0
    vertex 3.8963247538049584 1.1494424274482968 2.9899999999999998
    vertex 3.886340034152772 2.163055478180787 3.0
  endloop
endfacet
facet normal -0.0 -0.0 1.0
  outer loop
    vertex 3.886340034152772 2.163055478180787 3.0
    vertex 3.8963247538049584 1.1494424274482968 2.9899999999999998
    vertex 4.06722575032588 2.2379807950592587 3.0
  endloop
endfacet
facet normal -0.0 -0.0 1.0
  outer loop
    vertex 4.06722575032588 2.2379807950592587 3.0
    vertex 3.8963247538049584 1.1494424274482968 2.9899999999999998
    vertex 4.339212610800222 1.2614900070990904 2.9899999999999998
  endloop
endfacet
facet normal -0.0 -0.0 1.0
  outer loop
    vertex 4.06722575032588 2.2379807950592587 3.0
    vertex 4.339212610800222 1.2614900070990904 2.9899999999999998
    vertex 4.222555836215792 2.3571697620076777 3.0
  endloop
endfacet
facet normal -0.0 -0.0 1.0
  outer loop
    vertex 4.222555836215792 2.3571697620076777 3.0
    vertex 4.339212610800222 1.2614900070990904 2.9899999999999998
    vertex 4.34174480316421 2.5124998478975877 3.0
  endloop
endfacet
facet normal -0.0 -0.0 1.0
  outer loop
    vertex 4.34174480316421 2.5124998478975877 3.0
    vertex 4.339212610800222 1.2614900070990904 2.9899999999999998
    vertex 4.738009382450497 1.4843474702919888 2.9899999999999998
  endloop
endfacet
facet normal -0.0 -0.0 1.0
  outer loop
    vertex 4.34174480316421 2.5124998478975877 3.0
    vertex 4.738009382450497 1.4843474702919888 2.9899999999999998
    vertex 4.416670120042682 2.693385564070697 3.0
  endloop
endfacet
facet normal -0.0 -0.0 1.0
  outer loop
    vertex 4.416670120042682 2.693385564070697 3.0
    vertex 4.738009382450497 1.4843474702919888 2.9899999999999998
    vertex 4.442225750325881 2.887499847897589 3.0
  endloop
endfacet
facet normal -0.0 -0.0 1.0
  outer loop
    vertex 2.942225750325881 2.887499847897589 3.0
    vertex 3.045238889851541 4.513509688696088 2.9899999999999998
    vertex 2.6464421182012647 4.290652225503188 2.9899999999999998
  endloop
endfacet
facet normal -0.0 -0.0 1.0
  outer loop
    vertex 3.045238889851541 4.513509688696088 2.9899999999999998
    vertex 2.942225750325881 2.887499847897589 3.0
    vertex 2.96778138060908 3.0816141317244803 3.0
  endloop
endfacet
facet normal -0.0 -0.0 1.0
  outer loop
    vertex 3.045238889851541 4.513509688696088 2.9899999999999998
    vertex 2.96778138060908 3.0816141317244803 3.0
    vertex 3.042706697487552 3.262499847897592 3.0
  endloop
endfacet
facet normal -0.0 -0.0 1.0
  outer loop
    vertex 3.045238889851541 4.513509688696088 2.9899999999999998
    vertex 3.042706697487552 3.262499847897592 3.0
    vertex 3.1618956644359706 3.417829933787502 3.0
  endloop
endfacet
facet normal -0.0 -0.0 1.0
  outer loop
    vertex 3.045238889851541 4.513509688696088 2.9899999999999998
    vertex 3.1618956644359706 3.417829933787502 3.0
    vertex 3.4881267468468025 4.625557268346881 2.9899999999999998
  endloop
endfacet
facet normal -0.0 -0.0 1.0
  outer loop
    vertex 3.4881267468468025 4.625557268346881 2.9899999999999998
    vertex 3.1618956644359706 3.417829933787502 3.0
    vertex 3.317225750325881 3.5370189007359207 3.0
  endloop
endfacet
facet normal -0.0 -0.0 1.0
  outer loop
    vertex 3.4881267468468025 4.625557268346881 2.9899999999999998
    vertex 3.317225750325881 3.5370189007359207 3.0
    vertex 3.4981114664989903 3.611944217614391 3.0
  endloop
endfacet
facet normal -0.0 -0.0 1.0
  outer loop
    vertex 3.4881267468468025 4.625557268346881 2.9899999999999998
    vertex 3.4981114664989903 3.611944217614391 3.0
    vertex 3.944923613639613 4.619159107069749 2.9899999999999998
  endloop
endfacet
facet normal -0.0 -0.0 1.0
  outer loop
    vertex 3.944923613639613 4.619159107069749 2.9899999999999998
    vertex 3.4981114664989903 3.611944217614391 3.0
    vertex 3.692225750325881 3.6374998478975917 3.0
  endloop
endfacet
facet normal -0.0 -0.0 1.0
  outer loop
    vertex 3.944923613639613 4.619159107069749 2.9899999999999998
    vertex 3.692225750325881 3.6374998478975917 3.0
    vertex 3.886340034152772 3.611944217614391 3.0
  endloop
endfacet
facet normal -0.0 -0.0 1.0
  outer loop
    vertex 3.944923613639613 4.619159107069749 2.9899999999999998
    vertex 3.886340034152772 3.611944217614391 3.0
    vertex 4.067225750325881 3.5370189007359207 3.0
  endloop
endfacet
facet normal -0.0 -0.0 1.0
  outer loop
    vertex 3.944923613639613 4.619159107069749 2.9899999999999998
    vertex 4.067225750325881 3.5370189007359207 3.0
    vertex 4.384499538650556 4.494751228982269 2.9899999999999998
  endloop
endfacet
facet normal -0.0 -0.0 1.0
  outer loop
    vertex 4.384499538650556 4.494751228982269 2.9899999999999998
    vertex 4.067225750325881 3.5370189007359207 3.0
    vertex 4.222555836215792 3.417829933787502 3.0
  endloop
endfacet
facet normal -0.0 -0.0 1.0
  outer loop
    vertex 4.384499538650556 4.494751228982269 2.9899999999999998
    vertex 4.222555836215792 3.417829933787502 3.0
    vertex 4.34174480316421 3.262499847897592 3.0
  endloop
endfacet
facet normal -0.0 -0.0 1.0
  outer loop
    vertex 4.384499538650556 4.494751228982269 2.9899999999999998
    vertex 4.34174480316421 3.262499847897592 3.0
    vertex 4.416670120042682 3.0816141317244803 3.0
  endloop
endfacet
facet normal -0.0 -0.0 1.0
  outer loop
    vertex 4.384499538650556 4.494751228982269 2.9899999999999998
    vertex 4.416670120042682 3.0816141317244803 3.0
    vertex 4.776898149023701 4.2608118253823575 2.9899999999999998
  endloop
endfacet
facet normal -0.0 -0.0 1.0
  outer loop
    vertex 4.776898149023701 4.2608118253823575 2.9899999999999998
    vertex 4.416670120042682 3.0816141317244803 3.0
    vertex 4.442225750325881 2.887499847897589 3.0
  endloop
endfacet
facet normal -0.0 -0.0 1.0
  outer loop
    vertex 4.776898149023701 4.2608118253823575 2.9899999999999998
    vertex 4.442225750325881 2.887499847897589 3.0
    vertex 4.738009382450497 1.4843474702919888 2.9899999999999998
  endloop
endfacet
facet normal -0.0 -0.0 1.0
  outer loop
    vertex 4.776898149023701 4.2608118253823575 2.9899999999999998
    vertex 4.738009382450497 1.4843474702919888 2.9899999999999998
    vertex 5.065537727810647 1.802827449199768 2.9899999999999998
  endloop
endfacet
facet normal -0.0 -0.0 1.0
  outer loop
    vertex 4.776898149023701 4.2608118253823575 2.9899999999999998
    vertex 5.065537727810647 1.802827449199768 2.9899999999999998
    vertex 5.095378127931479 3.9332834800222063 2.9899999999999998
  endloop
endfacet
facet normal -0.0 -0.0 1.0
  outer loop
    vertex 5.095378127931479 3.9332834800222063 2.9899999999999998
    vertex 5.065537727810647 1.802827449199768 2.9899999999999998
    vertex 5.29947713141056 2.195226059572913 2.9899999999999998
  endloop
endfacet
facet normal -0.0 -0.0 1.0
  outer loop
    vertex 5.095378127931479 3.9332834800222063 2.9899999999999998
    vertex 5.29947713141056 2.195226059572913 2.9899999999999998
    vertex 5.31823559112438 3.5344867083719325 2.9899999999999998
  endloop
endfacet
facet normal -0.0 -0.0 1.0
  outer loop
    vertex 5.31823559112438 3.5344867083719325 2.9899999999999998
    vertex 5.29947713141056 2.195226059572913 2.9899999999999998
    vertex 5.4238850094980435 2.6348019845838557 2.9899999999999998
  endloop
endfacet
facet normal -0.0 -0.0 1.0
  outer loop
    vertex 5.31823559112438 3.5344867083719325 2.9899999999999998
    vertex 5.4238850094980435 2.6348019845838557 2.9899999999999998
    vertex 5.430283170775174 3.0915988513766663 2.9899999999999998
  endloop
endfacet
endsolid s-1_rod_cap
